<?xml version="1.0" encoding="UTF-8" standalone="no"?>
<!-- Created with Inkscape (http://www.inkscape.org/) -->

<svg
   xmlns:dc="http://purl.org/dc/elements/1.1/"
   xmlns:cc="http://creativecommons.org/ns#"
   xmlns:rdf="http://www.w3.org/1999/02/22-rdf-syntax-ns#"
   xmlns:svg="http://www.w3.org/2000/svg"
   xmlns="http://www.w3.org/2000/svg"
   xmlns:sodipodi="http://sodipodi.sourceforge.net/DTD/sodipodi-0.dtd"
   xmlns:inkscape="http://www.inkscape.org/namespaces/inkscape"
   width="320"
   height="45"
   viewBox="0 0 84.666663 11.90625"
   version="1.1"
   id="svg8"
   inkscape:version="0.92.3 (2405546, 2018-03-11)"
   sodipodi:docname="logo.svg">
  <defs
     id="defs2">
    <style
       id="style3730">.cls-1{fill:#f73;}</style>
  </defs>
  <sodipodi:namedview
     id="base"
     pagecolor="#ffffff"
     bordercolor="#666666"
     borderopacity="1.0"
     inkscape:pageopacity="0.0"
     inkscape:pageshadow="2"
     inkscape:zoom="5.6568542"
     inkscape:cx="76.569456"
     inkscape:cy="-2.7409247"
     inkscape:document-units="mm"
     inkscape:current-layer="layer2"
     showgrid="true"
     showguides="false"
     width="38mm"
     units="px"
     inkscape:window-width="1920"
     inkscape:window-height="1017"
     inkscape:window-x="-8"
     inkscape:window-y="-8"
     inkscape:window-maximized="1">
    <inkscape:grid
       type="xygrid"
       id="grid4560" />
  </sodipodi:namedview>
  <metadata
     id="metadata5">
    <rdf:RDF>
      <cc:Work
         rdf:about="">
        <dc:format>image/svg+xml</dc:format>
        <dc:type
           rdf:resource="http://purl.org/dc/dcmitype/StillImage" />
        <dc:title></dc:title>
      </cc:Work>
    </rdf:RDF>
  </metadata>
  <g
     inkscape:groupmode="layer"
     id="layer2"
     inkscape:label="Calque 2"
     style="opacity:1"
     transform="translate(0,-285.09375)">
    <g
       data-name="Layer 2"
       id="Layer_2"
       transform="matrix(0.26458333,0,0,0.26458333,0.44450013,285.94307)"
       style="fill:#f2f2f2">
      <g
         data-name="Layer 1"
         id="Layer_1-2"
         style="fill:#f2f2f2">
        <path
           id="path3736"
           d="M 41.42,3.91 A 12.55,12.55 0 0 0 32.32,0 C 24.24,0 23,4.41 22.42,7.05 21.86,4.41 20.59,0 12.52,0 A 12.55,12.55 0 0 0 3.42,3.91 C -1,8.48 -1.13,14.28 3,21.16 A 0.72201108,0.72201108 0 1 0 4.24,20.42 C 0.48,14.17 0.57,9 4.46,4.91 a 11.12,11.12 0 0 1 8.06,-3.47 c 7.27,0 8,3.61 8.56,6.25 a 4.45,4.45 0 0 0 0.82,2.2 0.72,0.72 0 0 0 1,0 4.46,4.46 0 0 0 0.82,-2.2 c 0.55,-2.64 1.29,-6.25 8.56,-6.25 a 11.12,11.12 0 0 1 8.06,3.47 10,10 0 0 1 2.98,8.09 c -0.34,3.62 -2.34,7.34 -5,10.79 H 30.9 l -2.6,-9.12 a 0.72,0.72 0 0 0 -1.39,0 c -1.69,5.95 -3.06,9.76 -4.92,14.89 l -1.8,-5.29 A 0.72,0.72 0 0 0 19.51,23.78 H 16.08 L 13.34,9.13 A 0.72,0.72 0 0 0 12.63,8.54 v 0 a 0.72,0.72 0 0 0 -0.7,0.61 L 9.54,23.81 H 0.72 a 0.725,0.725 0 1 0 0,1.45 h 9.44 a 0.72,0.72 0 0 0 0.71,-0.61 l 1.81,-11.17 2.09,11.19 a 0.72,0.72 0 0 0 0.71,0.59 H 19 L 21.28,32 a 0.72,0.72 0 0 0 0.68,0.49 v 0 a 0.72,0.72 0 0 0 0.68,-0.48 l 0.57,-1.56 c 1.67,-4.62 2.94,-8.13 4.38,-12.95 l 2.06,7.23 a 0.72,0.72 0 0 0 0.7,0.52 h 6.84 A 79.75,79.75 0 0 1 23.26,37.88 l -0.52,0.38 -0.33,0.24 -0.3,-0.23 -0.66,-0.5 a 84.43,84.43 0 0 1 -10.72,-9.16 0.72,0.72 0 0 0 -1,1 A 86,86 0 0 0 20.6,39 l 0.62,0.47 A 2.06,2.06 0 0 0 22.4,40 2.16,2.16 0 0 0 23.6,39.43 l 0.5,-0.36 C 27.36,36.75 43.7,24.59 44.77,13.17 A 11.34,11.34 0 0 0 41.42,3.91 Z"
           class="cls-1"
           inkscape:connector-curvature="0"
           style="fill:#f2f2f2" />
      </g>
    </g>
    <text
       xml:space="preserve"
       style="font-style:normal;font-weight:normal;font-size:10.58333302px;line-height:1.25;font-family:sans-serif;letter-spacing:0px;word-spacing:0px;fill:#f2f2f2;fill-opacity:1;stroke:none;stroke-width:0.26458332;"
       x="12.718105"
       y="294.92105"
       id="text3752"><tspan
         sodipodi:role="line"
         id="tspan3750"
         x="12.718105"
         y="294.92105"
         style="font-style:normal;font-variant:normal;font-weight:normal;font-stretch:normal;font-family:'Adobe Fan Heiti Std';-inkscape-font-specification:'Adobe Fan Heiti Std';fill:#f2f2f2;stroke-width:0.26458332;">MEDIPRACTICE</tspan></text>
  </g>
</svg>
